<svg width="34" height="22" viewBox="0 0 34 22" fill="none" xmlns="http://www.w3.org/2000/svg">
<path fill-rule="evenodd" clip-rule="evenodd" d="M32.8905 2.30539C33.1178 1.50564 32.8905 0.917969 31.8088 0.917969H28.2318C27.3223 0.917969 26.903 1.42563 26.6756 1.98542C26.6756 1.98542 24.8564 6.66393 22.2795 9.70287C21.4459 10.5826 21.0669 10.8626 20.6122 10.8626C20.3848 10.8626 20.0436 10.5826 20.0436 9.78292V2.30539C20.0436 1.34569 19.7917 0.917969 19.0337 0.917969H13.4127C12.8443 0.917969 12.5025 1.36338 12.5025 1.78553C12.5025 2.69531 13.7909 2.90512 13.9237 5.46432V11.0225C13.9237 12.2411 13.7151 12.4621 13.2604 12.4621C12.0477 12.4621 9.09802 7.76268 7.34856 2.38533C7.00571 1.34016 6.66184 0.917969 5.74765 0.917969H2.17063C1.14863 0.917969 0.944214 1.42563 0.944214 1.98542C0.944214 2.98513 2.1569 7.94353 6.59069 14.5014C9.54653 18.9798 13.7111 21.4075 17.5007 21.4075C19.7744 21.4075 20.0558 20.8684 20.0558 19.9396V16.5547C20.0558 15.4764 20.2712 15.2611 20.9912 15.2611C21.5217 15.2611 22.4312 15.5411 24.5533 17.7004C26.9787 20.2595 27.3786 21.4075 28.7427 21.4075H32.3198C33.3417 21.4075 33.8528 20.8684 33.558 19.8042C33.2353 18.7437 32.0775 17.2051 30.541 15.3811C29.7073 14.3414 28.4566 13.2218 28.0776 12.6619C27.5471 11.9422 27.6987 11.6223 28.0776 10.9826C28.0776 10.9826 32.4358 4.50462 32.8905 2.30539Z" fill="white"/>
</svg>
