<svg width="51" height="51" viewBox="0 0 51 51" fill="none" xmlns="http://www.w3.org/2000/svg">
<path d="M21.505 3.95236C12.1261 3.95236 4.505 11.5735 4.505 20.9524C4.505 30.3313 12.1261 37.9524 21.505 37.9524C25.2159 37.9524 28.6456 36.757 31.4425 34.7336L44.5988 47.8586L47.4113 45.0461L34.4113 32.0149C36.9659 29.0383 38.505 25.175 38.505 20.9524C38.505 11.5735 30.8839 3.95236 21.505 3.95236ZM21.505 5.95236C29.8019 5.95236 36.505 12.6555 36.505 20.9524C36.505 29.2492 29.8019 35.9524 21.505 35.9524C13.2081 35.9524 6.505 29.2492 6.505 20.9524C6.505 12.6555 13.2081 5.95236 21.505 5.95236Z" fill="white"/>
</svg>
