<svg width="20" height="13" viewBox="0 0 20 13" fill="none" xmlns="http://www.w3.org/2000/svg">
<path fill-rule="evenodd" clip-rule="evenodd" d="M0.375 6.49181C0.375 6.30947 0.447433 6.1346 0.576364 6.00567C0.705295 5.87674 0.880164 5.80431 1.0625 5.80431L17.2779 5.80431L12.9508 1.47856C12.8217 1.34946 12.7491 1.17437 12.7491 0.991808C12.7491 0.809241 12.8217 0.634152 12.9508 0.505057C13.0798 0.375963 13.2549 0.30344 13.4375 0.30344C13.6201 0.303439 13.7952 0.375963 13.9242 0.505057L19.4242 6.00506C19.4883 6.06892 19.5391 6.14479 19.5737 6.22831C19.6084 6.31184 19.6262 6.40138 19.6262 6.49181C19.6262 6.58224 19.6084 6.67178 19.5737 6.7553C19.5391 6.83883 19.4883 6.9147 19.4242 6.97856L13.9242 12.4786C13.7952 12.6077 13.6201 12.6802 13.4375 12.6802C13.2549 12.6802 13.0798 12.6077 12.9508 12.4786C12.8217 12.3495 12.7491 12.1744 12.7491 11.9918C12.7491 11.8092 12.8217 11.6342 12.9508 11.5051L17.2779 7.17931L1.0625 7.17931C0.880164 7.17931 0.705295 7.10687 0.576364 6.97794C0.447433 6.84901 0.375 6.67414 0.375 6.49181Z" fill="white"/>
</svg>
