<svg width="19" height="21" viewBox="0 0 19 21" fill="none" xmlns="http://www.w3.org/2000/svg">
<path d="M0.15625 1.30786C0.15625 1.11724 0.231975 0.93442 0.366767 0.799628C0.501559 0.664837 0.684376 0.589111 0.875 0.589111H18.125C18.3156 0.589111 18.4984 0.664837 18.6332 0.799628C18.768 0.93442 18.8438 1.11724 18.8438 1.30786V4.18286C18.8437 4.36012 18.7782 4.53111 18.6597 4.66299L12.375 11.6464V18.5579C12.3749 18.7087 12.3273 18.8556 12.2391 18.9779C12.1509 19.1001 12.0264 19.1916 11.8834 19.2392L7.57088 20.6767C7.46288 20.7127 7.34789 20.7225 7.23536 20.7053C7.12284 20.6882 7.016 20.6445 6.92364 20.578C6.83128 20.5115 6.75605 20.424 6.70413 20.3227C6.65221 20.2214 6.62509 20.1092 6.625 19.9954V11.6464L0.34025 4.66299C0.221812 4.53111 0.156282 4.36012 0.15625 4.18286V1.30786ZM1.59375 2.02661V3.90686L7.8785 10.8902C7.99694 11.0221 8.06247 11.1931 8.0625 11.3704V18.9977L10.9375 18.0404V11.3704C10.9375 11.1931 11.0031 11.0221 11.1215 10.8902L17.4062 3.90686V2.02661H1.59375Z" fill="white"/>
</svg>
